<svg width="68" height="68" viewBox="0 0 68 68" fill="none" xmlns="http://www.w3.org/2000/svg">
<path d="M26.86 59.7001L34 47.3334H10.9C14.3984 53.3839 20.1276 57.8232 26.86 59.7001V59.7001ZM8.17329 40.6667H22.4533L10.9 20.6634C8.55556 24.7166 7.32505 29.3178 7.33329 34.0001C7.33329 36.3001 7.62662 38.5334 8.17329 40.6667ZM15.3166 14.9734L22.45 27.3334L34 7.33342C27.0099 7.3243 20.2975 10.0691 15.3166 14.9734V14.9734ZM41.14 8.30008L34 20.6667H57.1C53.6015 14.6163 47.8723 10.177 41.14 8.30008ZM59.8266 27.3334H45.5466L57.0966 47.3367C59.4422 43.2839 60.6738 38.6827 60.6666 34.0001C60.6666 31.7001 60.3733 29.4667 59.8266 27.3334ZM52.6833 53.0268L45.55 40.6667L34 60.6668C40.99 60.6759 47.7024 57.9311 52.6833 53.0268V53.0268ZM34 67.3334C15.59 67.3334 0.666626 52.4101 0.666626 34.0001C0.666626 15.5901 15.59 0.666748 34 0.666748C52.4099 0.666748 67.3333 15.5901 67.3333 34.0001C67.3333 52.4101 52.4099 67.3334 34 67.3334ZM37.85 27.3334H30.15L26.3033 34.0001L30.15 40.6667H37.85L41.6966 34.0001L37.85 27.3334Z" fill="white"/>
</svg>
