<svg width="74" height="74" viewBox="0 0 74 74" fill="none" xmlns="http://www.w3.org/2000/svg">
<path d="M37 23.6666C29.6334 23.6666 23.6667 29.6333 23.6667 36.9999C23.6667 44.3666 29.6334 50.3333 37 50.3333C44.3667 50.3333 50.3334 44.3666 50.3334 36.9999C50.3334 29.6333 44.3667 23.6666 37 23.6666ZM66.8 33.6666C66.045 26.907 63.0139 20.605 58.2044 15.7956C53.3949 10.9861 47.093 7.95496 40.3334 7.19992V0.333252H33.6667V7.19992C26.9071 7.95496 20.6052 10.9861 15.7957 15.7956C10.9862 20.605 7.95508 26.907 7.20004 33.6666H0.333374V40.3333H7.20004C7.95508 47.0928 10.9862 53.3948 15.7957 58.2043C20.6052 63.0138 26.9071 66.0449 33.6667 66.7999V73.6666H40.3334V66.7999C47.093 66.0449 53.3949 63.0138 58.2044 58.2043C63.0139 53.3948 66.045 47.0928 66.8 40.3333H73.6667V33.6666H66.8V33.6666ZM37 60.3333C24.1 60.3333 13.6667 49.8999 13.6667 36.9999C13.6667 24.0999 24.1 13.6666 37 13.6666C49.9 13.6666 60.3334 24.0999 60.3334 36.9999C60.3334 49.8999 49.9 60.3333 37 60.3333Z" fill="white"/>
</svg>
