<svg width="80" height="80" viewBox="0 0 80 80" fill="none" xmlns="http://www.w3.org/2000/svg">
<path d="M71.1111 17.7778H54.8889L52.5333 11.7334C52.211 10.8981 51.644 10.1796 50.9065 9.67209C50.1689 9.16454 49.2953 8.89157 48.4 8.88893H31.6C30.7009 8.88709 29.8224 9.15797 29.0805 9.66581C28.3386 10.1737 27.7681 10.8946 27.4445 11.7334L25.1111 17.7778H8.8889C7.71016 17.7778 6.5797 18.2461 5.74621 19.0796C4.91271 19.9131 4.44446 21.0435 4.44446 22.2223V66.6667C4.44446 67.8454 4.91271 68.9759 5.74621 69.8094C6.5797 70.6429 7.71016 71.1111 8.8889 71.1111H71.1111C72.2899 71.1111 73.4203 70.6429 74.2538 69.8094C75.0873 68.9759 75.5556 67.8454 75.5556 66.6667V22.2223C75.5556 21.0435 75.0873 19.9131 74.2538 19.0796C73.4203 18.2461 72.2899 17.7778 71.1111 17.7778V17.7778ZM71.1111 66.6667H8.8889V22.2223H28.1556L31.6 13.3334H48.4L51.8444 22.2223H71.1111V66.6667Z" fill="white"/>
<path d="M20 42.2222C20 46.1778 21.173 50.0446 23.3706 53.3336C25.5682 56.6225 28.6918 59.186 32.3463 60.6998C36.0009 62.2135 40.0222 62.6096 43.9018 61.8379C47.7814 61.0662 51.3451 59.1613 54.1421 56.3643C56.9392 53.5672 58.844 50.0036 59.6157 46.124C60.3874 42.2444 59.9913 38.223 58.4776 34.5685C56.9638 30.914 54.4004 27.7904 51.1114 25.5928C47.8224 23.3951 43.9556 22.2222 40 22.2222C34.6957 22.2222 29.6086 24.3293 25.8579 28.08C22.1071 31.8308 20 36.9178 20 42.2222V42.2222ZM56.4444 42.2222C56.4444 45.4746 55.48 48.6539 53.6731 51.3582C51.8661 54.0625 49.2978 56.1702 46.293 57.4148C43.2882 58.6595 39.9818 58.9851 36.7918 58.3506C33.6019 57.7161 30.6718 56.1499 28.372 53.8501C26.0722 51.5503 24.506 48.6202 23.8715 45.4303C23.237 42.2404 23.5627 38.934 24.8073 35.9291C26.052 32.9243 28.1597 30.356 30.864 28.5491C33.5682 26.7422 36.7476 25.7777 40 25.7777C44.3595 25.7836 48.5388 27.518 51.6215 30.6007C54.7041 33.6833 56.4386 37.8626 56.4444 42.2222V42.2222Z" fill="white"/>
<path d="M20.8222 28.5112C20.8222 28.0397 20.6349 27.5875 20.3015 27.2541C19.9681 26.9207 19.516 26.7334 19.0445 26.7334H13.7111C13.2396 26.7334 12.7874 26.9207 12.454 27.2541C12.1207 27.5875 11.9333 28.0397 11.9333 28.5112C11.9333 28.9827 12.1207 29.4349 12.454 29.7683C12.7874 30.1017 13.2396 30.289 13.7111 30.289H19.0445C19.516 30.289 19.9681 30.1017 20.3015 29.7683C20.6349 29.4349 20.8222 28.9827 20.8222 28.5112V28.5112Z" fill="white"/>
<path d="M27.4222 42.2222C27.4472 44.5659 28.1371 46.8544 29.4117 48.8214C30.6863 50.7884 32.4932 52.353 34.6222 53.3333L36.5111 50.2889C35.2386 49.8628 34.0791 49.154 33.1196 48.2159C32.1601 47.2777 31.4255 46.1345 30.9708 44.872C30.5161 43.6094 30.3531 42.2603 30.4942 40.9258C30.6352 39.5913 31.0766 38.3061 31.7852 37.1665C32.4938 36.0269 33.4512 35.0625 34.5856 34.3457C35.7201 33.6288 37.0021 33.1782 38.3355 33.0275C39.669 32.8767 41.0192 33.0299 42.285 33.4754C43.5508 33.921 44.6994 34.6473 45.6444 35.6L47.5555 32.5333C45.7363 31.0594 43.5356 30.1326 41.21 29.8612C38.8844 29.5897 36.5295 29.9846 34.4196 31C32.3098 32.0153 30.5319 33.6092 29.293 35.5961C28.0542 37.5829 27.4054 39.8809 27.4222 42.2222V42.2222Z" fill="white"/>
</svg>
