<svg width="80" height="80" viewBox="0 0 80 80" fill="none" xmlns="http://www.w3.org/2000/svg">
<path d="M37.5 5H42.5V17.4H37.5V5Z" fill="white"/>
<path d="M54.2175 22.225L62.985 13.4575L66.52 16.995L57.7525 25.7625L54.2175 22.225Z" fill="white"/>
<path d="M62.6001 37.5H75.0001V42.5H62.6001V37.5Z" fill="white"/>
<path d="M54.2324 57.7577L57.7674 54.2227L66.5349 62.9927L62.9999 66.5252L54.2324 57.7577Z" fill="white"/>
<path d="M37.5 62.6001H42.5V75.0001H37.5V62.6001Z" fill="white"/>
<path d="M13.4924 63.0051L22.2599 54.2375L25.7949 57.7725L17.0274 66.5426L13.4924 63.0051Z" fill="white"/>
<path d="M5 37.5H17.4V42.5H5V37.5Z" fill="white"/>
<path d="M13.4751 17.0076L17.0151 13.4751L25.7826 22.2451L22.2476 25.7801L13.4751 17.0076Z" fill="white"/>
<path d="M40 30C41.9778 30 43.9112 30.5865 45.5557 31.6853C47.2002 32.7841 48.4819 34.3459 49.2388 36.1732C49.9957 38.0004 50.1937 40.0111 49.8079 41.9509C49.422 43.8907 48.4696 45.6725 47.0711 47.0711C45.6725 48.4696 43.8907 49.422 41.9509 49.8079C40.0111 50.1937 38.0004 49.9957 36.1732 49.2388C34.3459 48.4819 32.7841 47.2002 31.6853 45.5557C30.5865 43.9112 30 41.9778 30 40C30 37.3478 31.0536 34.8043 32.9289 32.9289C34.8043 31.0536 37.3478 30 40 30V30ZM40 25C37.0333 25 34.1332 25.8797 31.6665 27.528C29.1997 29.1762 27.2771 31.5189 26.1418 34.2597C25.0065 37.0006 24.7094 40.0166 25.2882 42.9264C25.867 45.8361 27.2956 48.5088 29.3934 50.6066C31.4912 52.7044 34.1639 54.133 37.0737 54.7118C39.9834 55.2906 42.9994 54.9935 45.7403 53.8582C48.4811 52.7229 50.8238 50.8003 52.472 48.3336C54.1203 45.8668 55 42.9667 55 40C55 36.0218 53.4197 32.2064 50.6066 29.3934C47.7936 26.5804 43.9783 25 40 25Z" fill="white"/>
</svg>
