<svg width="80" height="80" viewBox="0 0 80 80" fill="none" xmlns="http://www.w3.org/2000/svg">
<path d="M52.5 40C52.5 37.5277 51.7669 35.111 50.3934 33.0554C49.0199 30.9998 47.0676 29.3976 44.7836 28.4515C42.4995 27.5054 39.9861 27.2579 37.5614 27.7402C35.1366 28.2225 32.9093 29.413 31.1612 31.1612C29.413 32.9093 28.2225 35.1366 27.7402 37.5614C27.2579 39.9861 27.5054 42.4995 28.4515 44.7836C29.3976 47.0676 30.9998 49.0199 33.0554 50.3934C35.111 51.7669 37.5277 52.5 40 52.5C43.3141 52.4962 46.4913 51.1781 48.8347 48.8347C51.1781 46.4913 52.4962 43.3141 52.5 40V40ZM32.5 40C32.5 38.5166 32.9399 37.0666 33.764 35.8332C34.5881 34.5999 35.7594 33.6386 37.1299 33.0709C38.5003 32.5033 40.0083 32.3547 41.4632 32.6441C42.918 32.9335 44.2544 33.6478 45.3033 34.6967C46.3522 35.7456 47.0665 37.082 47.3559 38.5368C47.6453 39.9917 47.4968 41.4997 46.9291 42.8701C46.3614 44.2406 45.4001 45.4119 44.1668 46.236C42.9334 47.0601 41.4834 47.5 40 47.5C38.0116 47.4977 36.1052 46.7068 34.6992 45.3008C33.2932 43.8948 32.5023 41.9884 32.5 40V40Z" fill="white"/>
<path d="M25 62.1856L38.3292 77.5H41.6708L55 62.1856V57.5H25V62.1856ZM48.0977 62.5L40 71.8038L31.9023 62.5H48.0977Z" fill="white"/>
<path d="M38.3292 2.5L25 17.8144V22.5H55V17.8144L41.6708 2.5H38.3292ZM31.9023 17.5L40 8.19625L48.0977 17.5H31.9023Z" fill="white"/>
<path d="M2.5 38.3292V41.6708L17.8145 55H22.5V25H17.8145L2.5 38.3292ZM17.5 48.0978L8.19609 40L17.5 31.9022V48.0978Z" fill="white"/>
<path d="M62.1855 25H57.5V55H62.1855L77.5 41.6708V38.3292L62.1855 25ZM62.5 48.0978V31.9022L71.8039 40L62.5 48.0978Z" fill="white"/>
</svg>
